<?xml version="1.0" encoding="utf-8"?>
<!-- Generator: Adobe Illustrator 21.1.0, SVG Export Plug-In . SVG Version: 6.00 Build 0)  -->
<svg version="1.1" id="Layer_1" xmlns="http://www.w3.org/2000/svg" xmlns:xlink="http://www.w3.org/1999/xlink" x="0px" y="0px"
	 viewBox="0 0 432 432" style="enable-background:new 0 0 432 432;" xml:space="preserve">
	 <style type="text/css">
	 	.st8{fill:none;stroke:#673ab7;stroke-width:6;stroke-linecap:round;stroke-miterlimit:10;}
	 </style>
<g>
	<path class="st8" d="M313.9,195.5c23.8-9.6,46.9-8.6,68.9,4.7c18.3,11,29.8,27.3,34.4,48.2c9.2,41.4-18.2,82.6-59.7,89.9
		c-14.3,2.5-28.3,1.2-41.7-4.3c-13.5-5.6-24.5-14.3-32.9-26.2c-8.4-11.9-12.9-25.1-13.6-39.8c-0.5,0-1,0-1.4,0
		c-14.5,0-29.1,0-43.6,0c-1.6,0-2.8-0.6-3.8-1.8c-29.5-35.2-59-70.3-88.6-105.5c-2.2-2.6-0.8-5.8,1.9-6.2c1.5-0.2,2.6,0.4,3.5,1.5
		c4.9,5.8,9.8,11.7,14.7,17.5c23.3,27.8,46.6,55.5,69.9,83.3c0.2,0.3,0.5,0.5,0.9,1c17.7-38.7,35.4-77.2,53.2-116
		c-0.6,0-1.1,0-1.5,0c-28.2,0-56.5,0-84.7,0c-2.6,0-4.2-1.4-4.1-3.7c0.1-1.8,1.4-3.2,3.2-3.4c0.5,0,1,0,1.4,0c29.2,0,58.5,0,87.7,0
		c1,0,1.5-0.3,1.9-1.2c1.3-3,2.7-6,4.1-9.1c-2.4-0.3-4.6-0.6-6.9-1c-7.7-1.3-15.1-3.4-21.9-7.4c-3.3-1.9-6.3-4.3-8.9-7.3
		c-1.1-1.3-1.6-2.7-0.9-4.3c0.7-1.6,2.1-2.1,3.8-2.1c22.7,0,45.5,0,68.2,0c2.8,0,4.1,1.4,4.2,4.2c0,3.6,0,7.1,0,10.7
		c0,2.5-0.8,3.6-3.3,4.3c-8.3,2.4-16.8,3.3-25.5,3.3c-0.9,0-1.3,0.2-1.7,1c-1.7,3.8-3.5,7.6-5.2,11.5c-0.2,0.4-0.2,1.1,0,1.5
		c9.3,18.8,18.6,37.5,27.9,56.3C313.7,195.1,313.8,195.3,313.9,195.5z M319.1,206.1c0.5-0.2,1-0.4,1.4-0.6c10-4,20.3-5.4,31-4.1
		c14.5,1.8,27,7.9,37.3,18.3c3,3,5.4,6.6,8.1,9.9c1,1.2,1,2.7,0.1,4c-0.8,1.3-2,1.8-3.5,1.6c-1.3-0.2-2.1-1-2.9-2.1
		c-13.2-19.8-36.6-29-59.7-23.5c-2.9,0.7-5.7,1.7-8.7,2.7c0.3,0.7,0.5,1,0.7,1.4c8,16.2,16,32.3,24,48.5c1.5,3-0.1,5.6-3.4,5.6
		c-7.8,0-15.6,0-23.4,0c-2.4,0-4-1.5-4-3.6c0-2.1,1.6-3.5,4.1-3.5c5.5,0,11.1,0,16.6,0c0.4,0,0.8,0,1.4-0.1
		c-7.5-15.1-14.9-30-22.3-44.9c-6.9,2.9-16.5,12.8-21.3,21.9c-3.8,7.2-6,14.8-6.5,23.1c0.6,0,1,0,1.5,0c5.5,0,10.9,0,16.4,0
		c2,0,3.5,1.3,3.6,3.2c0.2,2.3-1.4,3.9-3.7,3.9c-5.5,0-10.9,0-16.4,0c-0.4,0-0.8,0-1.5,0c0.3,2.5,0.5,4.8,1,7.1
		c5.9,29.9,33.7,49.6,63.7,44.7c19.6-3.2,33.7-14.2,42.2-32.1c5.7-12.1,6.5-24.7,3.2-37.7c-0.6-2.5,0.3-4.4,2.3-5
		c2.1-0.6,3.9,0.6,4.5,3c2.6,9.6,2.9,19.2,0.9,28.9c-9.1,43.7-57.5,64-94.3,41.7c-17.1-10.3-27.1-25.7-30-45.5
		c-0.3-1.7-0.4-3.4-0.6-5.1c-1.6,0-3.1,0-4.5,0c1.2,28.1,20.8,54.7,51.4,62.4c29.8,7.5,61-6.4,75.8-33.7
		c14.8-27.2,9.2-61.2-13.7-82.2c-22.9-21.1-53-21.6-72.9-12.3C317.8,203.4,318.4,204.7,319.1,206.1z M307.5,198.6
		c-8.6-17.3-17.2-34.7-25.9-52.2c-17.6,38.3-35,76.2-52.4,114.3c13.5,0,26.8,0,40,0C271.3,233.4,284,212.8,307.5,198.6z
		 M314.3,109.6c-18.7,0-37.2,0-55.6,0c0,0.1-0.1,0.2-0.1,0.3c1.8,0.8,3.5,1.8,5.3,2.5c9.5,3.9,19.4,5.3,29.6,5.3
		c6.7,0,13.3-0.7,19.9-2.4c0.4-0.1,0.9-0.5,0.9-0.8C314.3,113,314.3,111.3,314.3,109.6z M310.7,205.2c-10.7,6.1-19.1,14.4-25.3,25
		c-5.5,9.4-8.5,19.6-9,30.5c1.6,0,3.1,0,4.5,0c1.9-22.5,12.5-39.6,31.8-51.4C312.1,207.9,311.4,206.6,310.7,205.2z"/>
	<path class="st8" d="M106.5,191.7c6.8-21.3,13.6-42.5,20.5-63.9c-0.4-0.1-0.8-0.1-1.2-0.1c-1.7-0.3-3-1.7-3.1-3.4c-0.1-1.7,1.1-3.2,2.8-3.5
		c0.4-0.1,0.8-0.1,1.2-0.1c3.1,0,6.3,0,9.4,0c1.9,0,3.4,1.2,3.7,2.9c0.3,1.7-0.6,3.4-2.2,3.9c-0.6,0.2-1.3,0.3-2,0.3
		c-0.8-0.1-1.2,0.3-1.4,1.1c-0.5,1.9-1.2,3.8-1.8,5.8c0.6,0,1.1,0,1.5,0c13.8,0,27.7,0,41.5,0c2.8,0,4.7,2.5,3.6,5
		c-0.7,1.5-1.9,2.1-3.5,2.1c-7.3,0-14.7,0-22,0c-7.3,0-14.7,0-22,0c-0.4,0-0.9,0-1.4,0c-5.6,17.4-11.1,34.8-16.7,52.1
		c24.2,10.1,40.2,27.4,46.5,53c4.5,18.3,2.2,36.1-6.7,52.8c-17.8,33.5-57.4,48.4-92.7,35C25.3,321.3,5.3,283.7,14,247.1
		c4.9-20.5,16.5-36.3,34.5-47.2C66.6,189,86,186.7,106.5,191.7z M111,200.9c-0.5,1.4-0.9,2.8-1.4,4.3c0.4,0.2,0.7,0.3,1.1,0.5
		c28.4,11.6,44.3,41.6,38.1,71.7c-8.4,40.2-52.6,62.2-89.3,43.9c-23.2-11.6-35-31-35.6-56.9c-0.2-8.2,1.4-16.1,4.6-23.7
		c0.4-0.9,1.2-1.8,2.1-2.3c1.3-0.7,2.7-0.4,3.8,0.7c1.3,1.2,1.3,2.7,0.7,4.3c-4.3,10.7-5.1,21.8-2.8,33.1
		c6.2,29.6,36,49.2,65.7,43.1c29.5-6.1,49-33.8,44.4-63.4c-3.1-19.8-14.1-34-32.1-42.8c-0.9-0.4-1.8-0.8-2.7-1.2
		c-0.2,0.5-0.3,0.8-0.4,1.1c-4.2,13.1-8.4,26.1-12.6,39.2c-1.4,4.3-2.7,8.5-4.1,12.8c-0.7,2.3-2.9,3.3-5,2.4
		c-1.8-0.8-2.4-2.6-1.7-4.8c5.2-16.3,10.4-32.6,15.7-48.9c0.4-1.3,0.8-2.5,1.2-3.8c-0.3-0.1-0.5-0.2-0.7-0.3
		c-8.1-1.9-16.2-2.1-24.4-0.4c-12.6,2.7-23,9-31.3,18.7c-1.6,1.8-3.7,2.1-5.3,0.7c-1.5-1.4-1.6-3.5-0.1-5.3
		c3.9-4.6,8.4-8.6,13.5-11.9c12.3-8,25.9-11.5,40.6-10.1c3.3,0.3,6.6,1,10.1,1.5c0.4-1.3,0.9-2.7,1.3-4.1
		c-29.9-8.7-67.2,5.9-80.7,41.7c-13.7,36.2,5.6,76.3,42.4,88.5c36,12,75.5-8.6,86.1-45.3C162.8,246.3,141.1,211.8,111,200.9z"/>
	<path class="st8" d="M161.9,100.3c0,1.9,0,3.6,0,5.5c0.5,0,1,0,1.5,0c7.2,0,14.5,0,21.7,0c2.4,0,4,1.3,4,3.4c0.1,2.1-1.4,3.7-3.5,3.7
		c-3.1,0.1-6.2,0-9.3,0c-5.8,0-11.6,0-17.5,0c-2.9,0-4.2-1.3-4.2-4.2c0-2.6,0-5.3,0-8.1c-5.4,0.5-10.2,1.9-13.2,6.5
		c-1.8,2.6-3,5.6-4.4,8.5c-0.6,1.4-1.5,2.3-3,2.5c-2.6,0.3-4.7-2.1-3.8-4.6c1.5-4.2,3.3-8.2,6.1-11.7c3.8-4.7,8.9-7,14.7-7.9
		c3.1-0.5,6.3-0.7,9.5-0.7c7.8-0.1,15.7,0,23.5,0c2,0,3.4,1.3,3.7,3.2c0.2,1.7-0.9,3.3-2.5,3.8c-0.5,0.1-1,0.1-1.5,0.1
		c-6.8,0-13.6,0-20.4,0C162.9,100.3,162.5,100.3,161.9,100.3z"/>
</g>
<g>
</g>
<g>
</g>
<g>
</g>
<g>
</g>
<g>
</g>
<g>
</g>
<g>
</g>
<g>
</g>
<g>
</g>
<g>
</g>
<g>
</g>
<g>
</g>
<g>
</g>
<g>
</g>
<g>
</g>
</svg>
