<!-- Generator: Adobe Illustrator 21.1.0, SVG Export Plug-In . SVG Version: 6.00 Build 0)  -->
<svg version="1.1" id="Layer_1" xmlns="http://www.w3.org/2000/svg" xmlns:xlink="http://www.w3.org/1999/xlink" x="0px" y="0px"
	 viewBox="0 0 288 288" style="enable-background:new 0 0 288 288;" xml:space="preserve">
<style type="text/css">
	.st0{fill:none;stroke:#006064;stroke-width:7.2196;stroke-linecap:round;stroke-miterlimit:10;}
	.st1{fill:none;stroke:#006064;stroke-width:8.9392;stroke-linecap:round;stroke-miterlimit:10;}
	.st2{fill:none;stroke:#006064;stroke-width:8.0724;stroke-linecap:round;stroke-miterlimit:10;}
</style>
<path class="st0" d="M443.8,308.1l22.8-6.4c0,0,11.6-4.2,29.2,0.6c17.7,4.8,88.1,24,88.1,24s6.3,1.2,10.3,8.6
	c4,7.3,14.3,26.2,14.3,26.2s11.4,1.5,11.4,4s0,4.9,0,4.9s0.5,2.7-4.1,4s-116.6,32.5-116.6,32.5s-16.4,5.6-36,0
	c-19.5-5.6-41.8-11.7-41.8-11.7s-1.7-0.7-1.7,1.3c0,1.9,0,11,0,11s0.6,4.1-5.9,2c-6.5-2.1-22.2-6.7-22.2-6.7s-3-0.6-3-4.4
	s0-10.3,0-10.3s1.1-1.3-1.4-2.2c-2.5-1-41.4-11.4-41.4-11.4s-4.4-1.7-4.4-2.7c0-1,0-5.6,0-5.6s0.1-3.3,11.9-4.3
	c7-13.8,13.2-24.9,13.2-24.9s2.2-6,12.1-10l40.3-11.3"/>
<path class="st0" d="M600.8,398l-8.5,21.9c0,0-1,5-7.6,6.8s-88.6,24.4-88.6,24.4s-13.2,5.7-33.3,0c-20.2-5.7-85.6-23.8-85.6-23.8
	s-6.5-2.1-8.4-6.4c-1.9-4.4-17-45.4-17-45.4"/>
<path class="st1" d="M500,54.3l49.4-25.6c0.3,0,0.6,0.3,0.6,0.6v204.4c0,0.3-0.3,0.6-0.6,0.6l-87.8,45.5c-0.3,0-0.6-0.3-0.6-0.6
	V74.8c0-0.3,0.3-0.6,0.6-0.6l14.3-7.4"/>
<path class="st1" d="M639,255.5l0-180.7c0-0.3-0.3-0.6-0.6-0.6l-87.8-45.5c-0.3,0-0.6,0.3-0.6,0.6v204.4c0,0.3,0.3,0.6,0.6,0.6
	l77.7,40.3"/>
<path class="st1" d="M639,256.5V75c0-0.3,0.3-0.6,0.6-0.6l87.8-45.5c0.3,0,0.6,0.3,0.6,0.6v204.4c0,0.3-0.3,0.6-0.6,0.6l-77.2,40"/>
<path class="st2" d="M122.7,7c27.5,0,65.8,0,65.8,0s4.9,0.4,4.9,4.9s0,19,0,19s-1.8,3.8-6.1,4.1c-0.3,0-0.4,0.2-0.4,0.5v6.7h3
	c0,0,15.5,1.6,15.5,17s0,203.4,0,203.4s-0.6,17-17,17s-92.3,0-92.3,0s-17-0.5-17-17s0-204.3,0-204.3s1.7-16.1,16.4-16.1
	c1.5,0,2.1,0,2.1,0v-6.3c0-0.5-0.3-0.9-0.8-1c-1.4-0.2-5.8-1.1-5.8-4.5c0-4.5,0-18.6,0-18.6S91.2,7,95.6,7c0.6,0,2.7,0,5.8,0"/>
<line class="st2" x1="113" y1="34.4" x2="172.1" y2="34.4"/>
<path class="st2" d="M93.8,83.4"/>
<path class="st2" d="M93.8,90c0,0,24-13.8,44,0s50.8,0,50.8,0"/>
<g>
</g>
<g>
</g>
<g>
</g>
<g>
</g>
<g>
</g>
<g>
</g>
<g>
</g>
<g>
</g>
<g>
</g>
<g>
</g>
<g>
</g>
<g>
</g>
<g>
</g>
<g>
</g>
<g>
</g>
</svg>
