<?xml version="1.0" encoding="utf-8"?>
<!-- Generator: Adobe Illustrator 21.1.0, SVG Export Plug-In . SVG Version: 6.00 Build 0)  -->
<svg version="1.1" id="Layer_1" xmlns="http://www.w3.org/2000/svg" xmlns:xlink="http://www.w3.org/1999/xlink" x="0px" y="0px"
	 viewBox="0 0 432 432" style="enable-background:new 0 0 432 432;" xml:space="preserve">
<style type="text/css">
	.st7{fill:none;stroke:#ffffff;stroke-width:6;stroke-linecap:round;stroke-miterlimit:10;}
</style>
<path class="st7" d="M16.5,101.5c0,0-2,40-1,50c1,9.5,3.7,11.6,11.7,14.5c0.8,0.3,1.2,1,1.2,1.8c-1,14.4-2.9,88.6-2.9,88.6s0,8,7,8
	s7-8,7-8s-1.8-75.4-2.9-88.7c-0.1-0.8,0.4-1.5,1.1-1.8c12.7-5.2,11.8-14.5,11.8-14.5s0-40-1-50"/>
<line class="st7" x1="27" y1="102" x2="27" y2="139"/>
<line class="st7" x1="38" y1="102" x2="38" y2="139"/>
<path class="st7" d="M231,84c0,0,46,14,58,69s-23,97-55,111s-81,12-113-23s-29-87-15-112s50-60,107-51"/>
<path class="st7" d="M112,174c0,0-1,61,61,79"/>
<line class="st7" x1="190" y1="256" x2="194" y2="256"/>
<circle class="st7" cx="194" cy="174" r="131"/>
<path class="st7" d="M353,166c0,0-15-5-15-28s13-35,19-36s17,8,20,30c2.8,20.7-5.9,30.8-12.8,33.6c-0.8,0.3-1.2,1-1.2,1.8
	c0.1,17.1,2,89.6,2,89.6s-1,8-7,8s-7-7-7-7l2-82"/>
<path class="st7" d="M393,187c0,0-0.9-71,14.3-83.4c1.1-0.9,2.8-0.2,2.8,1.3c0.8,27.8,0.9,139.9,0.9,157.7c0,1.4-1.2,2.4-2.6,2.2
	c-3.5-0.5-9.4-2.2-9.4-7.8c0-8,1-60,1-60"/>
<g>
</g>
<g>
</g>
<g>
</g>
<g>
</g>
<g>
</g>
<g>
</g>
<g>
</g>
<g>
</g>
<g>
</g>
<g>
</g>
<g>
</g>
<g>
</g>
<g>
</g>
<g>
</g>
<g>
</g>
</svg>
